inDegrees=yes
name=ik_.mot
DataType=double
version=3
OpenSimVersion=4.3-2021-08-27-4bc7ad9
endheader
time	pelvis_tilt	pelvis_list	pelvis_rotation	pelvis_tx	pelvis_ty	pelvis_tz	hip_flexion_r	hip_adduction_r	hip_rotation_r	knee_angle_r	knee_angle_r_beta	ankle_angle_r	subtalar_angle_r	mtp_angle_r	hip_flexion_l	hip_adduction_l	hip_rotation_l	knee_angle_l	knee_angle_l_beta	ankle_angle_l	subtalar_angle_l	mtp_angle_l	lumbar_extension	lumbar_bending	lumbar_rotation	arm_flex_r	arm_add_r	arm_rot_r	elbow_flex_r	pro_sup_r	wrist_flex_r	wrist_dev_r	arm_flex_l	arm_add_l	arm_rot_l	elbow_flex_l	pro_sup_l	wrist_flex_l	wrist_dev_l
3.46	-0.5841969398396016	-0.007247429298278702	0.1912782880944167	0	0.9399999999999999	0	43.45736425992462	-10.3668103135798	0	60.91350373851483	1.063141199162959	-5.129401404495462	0	0	43.45736425992462	-10.3668103135798	0	60.91350373851483	1.063141199162959	-5.129401404495462	0	0	-3.514461479374751	0.9182923949464507	1.220268971817405	0	-10.98895861066359	0	75.02976605698422	44.77899822067904	0	0	48.47605574642262	12.17414319183299	2.143333614324382	0.002162278780799212	44.77899822067904	0	0
3.47	-0.5769984357019646	-0.008332941258874262	0.2003753513840323	0	0.9399999999999999	0	43.45761710528213	-10.36660293396049	0	60.9133850116095	1.06313912698755	-5.129306195266198	0	0	43.45761710528213	-10.36660293396049	0	60.9133850116095	1.06313912698755	-5.129306195266198	0	0	-3.524850107935606	0.909363669712195	1.20675017807223	0	-10.98929804958187	0	75.02976120901573	44.77909725991847	0	0	48.5092319459069	12.2717144678371	2.242603816588318	0.002158044126663704	44.77909725991847	0	0
3.48	-0.5673119232384893	0.006784699691024198	0.2048835286826579	0	0.9399999999999999	0	43.4578977693769	-10.36637103845375	0	60.91325405850363	1.063136841424687	-5.12919959644659	0	0	43.4578977693769	-10.36637103845375	0	60.91325405850363	1.063136841424687	-5.12919959644659	0	0	-3.534153975655868	0.8878303311600689	1.219719078586423	0	-10.98967315159435	0	75.02975582768993	44.77920787256604	0	0	48.46653860733248	12.4465408694066	1.990391447201544	0.00215658325094513	44.77920787256604	0	0
3.49	-0.5596103903859746	-0.003090611819215596	0.2095807532279942	0	0.9399999999999999	0	43.45814371745859	-10.36616893507093	0	60.9131388182138	1.063134830102199	-5.12910679540114	0	0	43.45814371745859	-10.36616893507093	0	60.9131388182138	1.063134830102199	-5.12910679540114	0	0	-3.55599679167994	0.8940486251781536	1.226742382838984	0	-10.99000286338999	0	75.02975111197472	44.77930437005955	0	0	48.50485874874047	12.36395207344849	2.008046904616206	0.002155838911103282	44.77930437005955	0	0
3.5	-0.5289518099163076	-0.0004293103592899554	0.2056735790541099	0	0.9399999999999999	0	43.45860364810968	-10.36578710077612	0	60.91292524652215	1.06313110257299	-5.128931163000341	0	0	43.45860364810968	-10.36578710077612	0	60.91292524652215	1.06313110257299	-5.128931163000341	0	0	-3.590391968761379	0.8928660766567066	1.218847796288161	0	-10.99061554933971	0	75.02974229350667	44.77948637679404	0	0	49.09096346368943	11.705024071746	2.523456129529222	0.002139492635696346	44.77948637679404	0	0
3.51	-0.5443571785664313	-0.01146088886755769	0.201706745210304	0	0.9399999999999999	0	43.45882747556389	-10.36560374170877	0	60.91282020728738	1.0631292692925	-5.128847043661176	0	0	43.45882747556389	-10.36560374170877	0	60.91282020728738	1.0631292692925	-5.128847043661176	0	0	-3.557861384560409	0.8896764525394016	1.232738920660703	0	-10.99091598857925	0	75.02973800191582	44.77957398520628	0	0	49.37541119357417	11.42686328038327	2.656836551192852	0.002130448183165641	44.77957398520628	0	0
3.52	-0.5150352947407046	0.0064936950031111	0.2222236151871783	0	0.9399999999999999	0	43.45924886718318	-10.36525476501577	0	60.91262428148831	1.063125849742216	-5.128686638291136	0	0	43.45924886718318	-10.36525476501577	0	60.91262428148831	1.063125849742216	-5.128686638291136	0	0	-3.603554736827396	0.8731362587374093	1.213467471722973	0	-10.99147792518839	0	75.02972992236218	44.77974042148765	0	0	49.85623593193249	10.88590156755462	2.867853657851132	0.002117608018784997	44.77974042148765	0	0
3.53	-0.5063004824550448	0.02336911156626677	0.2265938136293106	0	0.9399999999999999	0	43.45949695778444	-10.3650501117893	0	60.91250860459679	1.063123830799591	-5.128592651283932	0	0	43.45949695778444	-10.3650501117893	0	60.91250860459679	1.063123830799591	-5.128592651283932	0	0	-3.605631567298941	0.8424474964937217	1.203541214450865	0	-10.99180945193327	0	75.02972516558316	44.77983809857333	0	0	49.67086978097306	11.22169729016087	2.653024077166315	0.002118902464920061	44.77983809857333	0	0
3.54	-0.5174870801468191	0.002550437995635174	0.2099261832124961	0	0.9399999999999999	0	43.45979964810345	-10.36480118620541	0	60.91236714180472	1.0631213618081	-5.128478405894093	0	0	43.45979964810345	-10.36480118620541	0	60.91236714180472	1.0631213618081	-5.128478405894093	0	0	-3.607014013744993	0.8598790747491526	1.228014046426158	0	-10.99221463099039	0	75.02971936192053	44.77995697338272	0	0	49.69873336947023	11.31944234770115	2.46371120332438	0.002115629001581991	44.77995697338272	0	0
3.55	-0.5087561310644966	-0.011440690868965	0.2069919390035012	0	0.9399999999999999	0	43.46006597256967	-10.36458207006071	0	60.91224276458441	1.063119191016091	-5.128377845053243	0	0	43.46006597256967	-10.36458207006071	0	60.91224276458441	1.063119191016091	-5.128377845053243	0	0	-3.610586545733546	0.8697245597480829	1.222768506079777	0	-10.99257096977187	0	75.02971425552444	44.78006161075088	0	0	49.58931180602345	11.49698501157696	2.410349647628177	0.002116090162870201	44.78006161075088	0	0
3.56	-0.5174709518733532	-0.02034863870943738	0.2035007540930164	0	0.9399999999999999	0	43.46033955620626	-10.36436007687159	0	60.91211360315204	1.06311693672383	-5.128276241129278	0	0	43.46033955620626	-10.36436007687159	0	60.91211360315204	1.06311693672383	-5.128276241129278	0	0	-3.59570671824188	0.8759468208209868	1.241004644298583	0	-10.99293988902226	0	75.02970900989233	44.78016788448876	0	0	49.71125836157338	11.648944963717	2.380569255346122	0.002108623230463738	44.78016788448876	0	0
3.57	-0.5078384511133777	-0.03700602934468426	0.2055896068887216	0	0.9399999999999999	0	43.46067486741621	-10.36408381334123	0	60.91195729191882	1.063114208578152	-5.128149446707479	0	0	43.46067486741621	-10.36408381334123	0	60.91195729191882	1.063114208578152	-5.128149446707479	0	0	-3.620356057411319	0.8915474946567147	1.230908361349308	0	-10.99338800757384	0	75.02970258078055	44.78029979397406	0	0	49.65960547241794	11.62460801069112	2.558278452632155	0.002109754031339943	44.78029979397406	0	0
3.58	-0.4924869467164862	-0.02024125298678514	0.2173416223767442	0	0.9399999999999999	0	43.4609592781601	-10.36384937391487	0	60.91182482648922	1.063111896620261	-5.128041855212058	0	0	43.4609592781601	-10.36384937391487	0	60.91182482648922	1.063111896620261	-5.128041855212058	0	0	-3.634004242533063	0.8694231840617915	1.216519756906487	0	-10.99376789045809	0	75.02969712761514	44.78041173304616	0	0	49.44248999962254	12.06664556370977	2.410943391074015	0.002111867038460199	44.78041173304616	0	0
3.59	-0.4875785016922644	-0.03364709736234535	0.2264688784755903	0	0.9399999999999999	0	43.46124455577542	-10.36361417182779	0	60.9116920256421	1.063109578808229	-5.127933921707156	0	0	43.46124455577542	-10.36361417182779	0	60.9116920256421	1.063109578808229	-5.127933921707156	0	0	-3.652824797629462	0.8789603787872911	1.208667394001234	0	-10.99414881543274	0	75.0296916578301	44.78052403861333	0	0	49.16450450802646	12.40582036856399	2.313188569386877	0.002117317814112799	44.78052403861333	0	0
